<mxfile host="app.diagrams.net" agent="Mozilla/5.0 (Windows NT 10.0; Win64; x64; rv:136.0) Gecko/20100101 Firefox/136.0" version="26.0.11">
  <diagram name="Page-1" id="QIyaCZyNtKzqZlhsNG7i">
    <mxGraphModel dx="3779" dy="1639" grid="1" gridSize="10" guides="1" tooltips="1" connect="1" arrows="1" fold="1" page="1" pageScale="1" pageWidth="850" pageHeight="1100" math="0" shadow="0">
      <root>
        <mxCell id="0" />
        <mxCell id="1" parent="0" />
        <mxCell id="rqLyGmfJN0hLR7UGqCZn-1" value="User" style="whiteSpace=wrap;html=1;align=center;" vertex="1" parent="1">
          <mxGeometry x="-1770" y="-610" width="100" height="40" as="geometry" />
        </mxCell>
        <mxCell id="rqLyGmfJN0hLR7UGqCZn-2" value="Review" style="whiteSpace=wrap;html=1;align=center;" vertex="1" parent="1">
          <mxGeometry x="-1470" y="-610" width="100" height="40" as="geometry" />
        </mxCell>
        <mxCell id="rqLyGmfJN0hLR7UGqCZn-3" value="Movie" style="whiteSpace=wrap;html=1;align=center;" vertex="1" parent="1">
          <mxGeometry x="-1770" y="-460" width="100" height="40" as="geometry" />
        </mxCell>
        <mxCell id="rqLyGmfJN0hLR7UGqCZn-5" value="watched" style="shape=rhombus;perimeter=rhombusPerimeter;whiteSpace=wrap;html=1;align=center;" vertex="1" parent="1">
          <mxGeometry x="-1755" y="-540" width="70" height="40" as="geometry" />
        </mxCell>
        <mxCell id="rqLyGmfJN0hLR7UGqCZn-6" value="" style="endArrow=none;html=1;rounded=0;entryX=0.5;entryY=0;entryDx=0;entryDy=0;" edge="1" parent="1" target="rqLyGmfJN0hLR7UGqCZn-5">
          <mxGeometry relative="1" as="geometry">
            <mxPoint x="-1720" y="-570" as="sourcePoint" />
            <mxPoint x="-1480" y="-500" as="targetPoint" />
            <Array as="points" />
          </mxGeometry>
        </mxCell>
        <mxCell id="rqLyGmfJN0hLR7UGqCZn-8" value="(0,N)" style="edgeLabel;html=1;align=center;verticalAlign=middle;resizable=0;points=[];" vertex="1" connectable="0" parent="rqLyGmfJN0hLR7UGqCZn-6">
          <mxGeometry x="-0.4603" relative="1" as="geometry">
            <mxPoint y="2" as="offset" />
          </mxGeometry>
        </mxCell>
        <mxCell id="rqLyGmfJN0hLR7UGqCZn-7" value="" style="endArrow=none;html=1;rounded=0;entryX=0.5;entryY=0;entryDx=0;entryDy=0;exitX=0.5;exitY=1;exitDx=0;exitDy=0;" edge="1" parent="1" source="rqLyGmfJN0hLR7UGqCZn-5" target="rqLyGmfJN0hLR7UGqCZn-3">
          <mxGeometry relative="1" as="geometry">
            <mxPoint x="-1710" y="-560" as="sourcePoint" />
            <mxPoint x="-1710" y="-540" as="targetPoint" />
            <Array as="points" />
          </mxGeometry>
        </mxCell>
        <mxCell id="rqLyGmfJN0hLR7UGqCZn-9" value="(0,N)" style="edgeLabel;html=1;align=center;verticalAlign=middle;resizable=0;points=[];" vertex="1" connectable="0" parent="rqLyGmfJN0hLR7UGqCZn-7">
          <mxGeometry x="0.3571" relative="1" as="geometry">
            <mxPoint as="offset" />
          </mxGeometry>
        </mxCell>
        <mxCell id="rqLyGmfJN0hLR7UGqCZn-10" value="has" style="shape=rhombus;perimeter=rhombusPerimeter;whiteSpace=wrap;html=1;align=center;" vertex="1" parent="1">
          <mxGeometry x="-1455" y="-530" width="70" height="40" as="geometry" />
        </mxCell>
        <mxCell id="rqLyGmfJN0hLR7UGqCZn-11" value="" style="endArrow=none;html=1;rounded=0;entryX=0.5;entryY=1;entryDx=0;entryDy=0;exitX=1;exitY=0.5;exitDx=0;exitDy=0;" edge="1" parent="1" source="rqLyGmfJN0hLR7UGqCZn-3" target="rqLyGmfJN0hLR7UGqCZn-10">
          <mxGeometry relative="1" as="geometry">
            <mxPoint x="-1710" y="-490" as="sourcePoint" />
            <mxPoint x="-1710" y="-450" as="targetPoint" />
            <Array as="points">
              <mxPoint x="-1420" y="-440" />
            </Array>
          </mxGeometry>
        </mxCell>
        <mxCell id="rqLyGmfJN0hLR7UGqCZn-18" value="has" style="shape=rhombus;perimeter=rhombusPerimeter;whiteSpace=wrap;html=1;align=center;" vertex="1" parent="1">
          <mxGeometry x="-1600" y="-610" width="70" height="40" as="geometry" />
        </mxCell>
        <mxCell id="rqLyGmfJN0hLR7UGqCZn-19" value="" style="endArrow=none;html=1;rounded=0;entryX=0;entryY=0.5;entryDx=0;entryDy=0;exitX=1;exitY=0.5;exitDx=0;exitDy=0;" edge="1" parent="1" source="rqLyGmfJN0hLR7UGqCZn-1" target="rqLyGmfJN0hLR7UGqCZn-18">
          <mxGeometry relative="1" as="geometry">
            <mxPoint x="-1710" y="-490" as="sourcePoint" />
            <mxPoint x="-1710" y="-450" as="targetPoint" />
            <Array as="points" />
          </mxGeometry>
        </mxCell>
        <mxCell id="rqLyGmfJN0hLR7UGqCZn-21" value="" style="endArrow=none;html=1;rounded=0;entryX=0;entryY=0.5;entryDx=0;entryDy=0;" edge="1" parent="1" target="rqLyGmfJN0hLR7UGqCZn-2">
          <mxGeometry relative="1" as="geometry">
            <mxPoint x="-1530" y="-590" as="sourcePoint" />
            <mxPoint x="-1590" y="-580" as="targetPoint" />
            <Array as="points" />
          </mxGeometry>
        </mxCell>
        <mxCell id="rqLyGmfJN0hLR7UGqCZn-22" value="(0,N)" style="edgeLabel;html=1;align=center;verticalAlign=middle;resizable=0;points=[];" vertex="1" connectable="0" parent="1">
          <mxGeometry x="-1650" y="-590" as="geometry" />
        </mxCell>
        <mxCell id="rqLyGmfJN0hLR7UGqCZn-23" value="(1,1)" style="edgeLabel;html=1;align=center;verticalAlign=middle;resizable=0;points=[];" vertex="1" connectable="0" parent="1">
          <mxGeometry x="-1470" y="-590" as="geometry">
            <mxPoint x="-14" y="-2" as="offset" />
          </mxGeometry>
        </mxCell>
        <mxCell id="rqLyGmfJN0hLR7UGqCZn-25" value="(1,1)" style="edgeLabel;html=1;align=center;verticalAlign=middle;resizable=0;points=[];" vertex="1" connectable="0" parent="1">
          <mxGeometry x="-1400" y="-550" as="geometry">
            <mxPoint x="-14" y="-2" as="offset" />
          </mxGeometry>
        </mxCell>
        <mxCell id="rqLyGmfJN0hLR7UGqCZn-26" value="" style="endArrow=none;html=1;rounded=0;entryX=0.5;entryY=1;entryDx=0;entryDy=0;exitX=0.5;exitY=0;exitDx=0;exitDy=0;" edge="1" parent="1" source="rqLyGmfJN0hLR7UGqCZn-10" target="rqLyGmfJN0hLR7UGqCZn-2">
          <mxGeometry relative="1" as="geometry">
            <mxPoint x="-1810" y="-510" as="sourcePoint" />
            <mxPoint x="-1650" y="-510" as="targetPoint" />
            <Array as="points" />
          </mxGeometry>
        </mxCell>
        <mxCell id="rqLyGmfJN0hLR7UGqCZn-27" value="(0,N)" style="edgeLabel;html=1;align=center;verticalAlign=middle;resizable=0;points=[];" vertex="1" connectable="0" parent="1">
          <mxGeometry x="-1630" y="-440" as="geometry">
            <mxPoint x="-14" y="-2" as="offset" />
          </mxGeometry>
        </mxCell>
        <mxCell id="rqLyGmfJN0hLR7UGqCZn-28" value="rating" style="ellipse;whiteSpace=wrap;html=1;align=center;" vertex="1" parent="1">
          <mxGeometry x="-1330" y="-660" width="90" height="40" as="geometry" />
        </mxCell>
        <mxCell id="rqLyGmfJN0hLR7UGqCZn-29" value="email" style="ellipse;whiteSpace=wrap;html=1;align=center;" vertex="1" parent="1">
          <mxGeometry x="-1800" y="-710" width="80" height="40" as="geometry" />
        </mxCell>
        <mxCell id="rqLyGmfJN0hLR7UGqCZn-30" value="password" style="ellipse;whiteSpace=wrap;html=1;align=center;" vertex="1" parent="1">
          <mxGeometry x="-1685" y="-690" width="80" height="40" as="geometry" />
        </mxCell>
        <mxCell id="rqLyGmfJN0hLR7UGqCZn-32" value="&lt;u&gt;id&lt;/u&gt;" style="ellipse;whiteSpace=wrap;html=1;align=center;" vertex="1" parent="1">
          <mxGeometry x="-1465" y="-680" width="90" height="40" as="geometry" />
        </mxCell>
        <mxCell id="rqLyGmfJN0hLR7UGqCZn-33" value="director" style="ellipse;whiteSpace=wrap;html=1;align=center;" vertex="1" parent="1">
          <mxGeometry x="-1765" y="-360" width="90" height="40" as="geometry" />
        </mxCell>
        <mxCell id="rqLyGmfJN0hLR7UGqCZn-34" value="year" style="ellipse;whiteSpace=wrap;html=1;align=center;" vertex="1" parent="1">
          <mxGeometry x="-1845" y="-410" width="90" height="40" as="geometry" />
        </mxCell>
        <mxCell id="rqLyGmfJN0hLR7UGqCZn-35" value="title" style="ellipse;whiteSpace=wrap;html=1;align=center;" vertex="1" parent="1">
          <mxGeometry x="-1900" y="-460" width="90" height="40" as="geometry" />
        </mxCell>
        <mxCell id="rqLyGmfJN0hLR7UGqCZn-36" value="name" style="ellipse;whiteSpace=wrap;html=1;align=center;" vertex="1" parent="1">
          <mxGeometry x="-1890" y="-670" width="80" height="40" as="geometry" />
        </mxCell>
        <mxCell id="rqLyGmfJN0hLR7UGqCZn-37" value="&lt;u&gt;id&lt;/u&gt;" style="ellipse;whiteSpace=wrap;html=1;align=center;" vertex="1" parent="1">
          <mxGeometry x="-1920" y="-610" width="80" height="40" as="geometry" />
        </mxCell>
        <mxCell id="rqLyGmfJN0hLR7UGqCZn-38" value="" style="endArrow=none;html=1;rounded=0;entryX=1;entryY=0.5;entryDx=0;entryDy=0;exitX=0;exitY=0.5;exitDx=0;exitDy=0;" edge="1" parent="1" source="rqLyGmfJN0hLR7UGqCZn-1" target="rqLyGmfJN0hLR7UGqCZn-37">
          <mxGeometry relative="1" as="geometry">
            <mxPoint x="-1740" y="-510" as="sourcePoint" />
            <mxPoint x="-1580" y="-510" as="targetPoint" />
          </mxGeometry>
        </mxCell>
        <mxCell id="rqLyGmfJN0hLR7UGqCZn-39" value="" style="endArrow=none;html=1;rounded=0;entryX=0.5;entryY=1;entryDx=0;entryDy=0;exitX=0;exitY=0;exitDx=0;exitDy=0;" edge="1" parent="1" source="rqLyGmfJN0hLR7UGqCZn-1" target="rqLyGmfJN0hLR7UGqCZn-36">
          <mxGeometry relative="1" as="geometry">
            <mxPoint x="-1730" y="-500" as="sourcePoint" />
            <mxPoint x="-1570" y="-500" as="targetPoint" />
          </mxGeometry>
        </mxCell>
        <mxCell id="rqLyGmfJN0hLR7UGqCZn-40" value="" style="endArrow=none;html=1;rounded=0;entryX=0.5;entryY=1;entryDx=0;entryDy=0;exitX=0.5;exitY=0;exitDx=0;exitDy=0;" edge="1" parent="1" source="rqLyGmfJN0hLR7UGqCZn-1" target="rqLyGmfJN0hLR7UGqCZn-29">
          <mxGeometry relative="1" as="geometry">
            <mxPoint x="-1720" y="-490" as="sourcePoint" />
            <mxPoint x="-1560" y="-490" as="targetPoint" />
          </mxGeometry>
        </mxCell>
        <mxCell id="rqLyGmfJN0hLR7UGqCZn-41" value="" style="endArrow=none;html=1;rounded=0;entryX=0.5;entryY=1;entryDx=0;entryDy=0;exitX=1;exitY=0;exitDx=0;exitDy=0;" edge="1" parent="1" source="rqLyGmfJN0hLR7UGqCZn-1" target="rqLyGmfJN0hLR7UGqCZn-30">
          <mxGeometry relative="1" as="geometry">
            <mxPoint x="-1710" y="-480" as="sourcePoint" />
            <mxPoint x="-1550" y="-480" as="targetPoint" />
          </mxGeometry>
        </mxCell>
        <mxCell id="rqLyGmfJN0hLR7UGqCZn-42" value="" style="endArrow=none;html=1;rounded=0;entryX=0.5;entryY=0;entryDx=0;entryDy=0;exitX=1;exitY=1;exitDx=0;exitDy=0;" edge="1" parent="1" source="rqLyGmfJN0hLR7UGqCZn-3" target="rqLyGmfJN0hLR7UGqCZn-46">
          <mxGeometry relative="1" as="geometry">
            <mxPoint x="-1700" y="-470" as="sourcePoint" />
            <mxPoint x="-1540" y="-470" as="targetPoint" />
          </mxGeometry>
        </mxCell>
        <mxCell id="rqLyGmfJN0hLR7UGqCZn-43" value="" style="endArrow=none;html=1;rounded=0;entryX=1;entryY=0.5;entryDx=0;entryDy=0;exitX=0;exitY=0.5;exitDx=0;exitDy=0;" edge="1" parent="1" source="rqLyGmfJN0hLR7UGqCZn-3" target="rqLyGmfJN0hLR7UGqCZn-35">
          <mxGeometry relative="1" as="geometry">
            <mxPoint x="-1655" y="-530" as="sourcePoint" />
            <mxPoint x="-1495" y="-530" as="targetPoint" />
          </mxGeometry>
        </mxCell>
        <mxCell id="rqLyGmfJN0hLR7UGqCZn-44" value="" style="endArrow=none;html=1;rounded=0;entryX=0.5;entryY=0;entryDx=0;entryDy=0;exitX=0.5;exitY=1;exitDx=0;exitDy=0;" edge="1" parent="1" source="rqLyGmfJN0hLR7UGqCZn-3" target="rqLyGmfJN0hLR7UGqCZn-33">
          <mxGeometry relative="1" as="geometry">
            <mxPoint x="-1670" y="-510.4" as="sourcePoint" />
            <mxPoint x="-1510" y="-510.4" as="targetPoint" />
          </mxGeometry>
        </mxCell>
        <mxCell id="rqLyGmfJN0hLR7UGqCZn-46" value="genre" style="ellipse;whiteSpace=wrap;html=1;align=center;" vertex="1" parent="1">
          <mxGeometry x="-1685" y="-400" width="90" height="40" as="geometry" />
        </mxCell>
        <mxCell id="rqLyGmfJN0hLR7UGqCZn-47" value="&lt;u&gt;id&lt;/u&gt;" style="ellipse;whiteSpace=wrap;html=1;align=center;" vertex="1" parent="1">
          <mxGeometry x="-1900" y="-510" width="90" height="40" as="geometry" />
        </mxCell>
        <mxCell id="rqLyGmfJN0hLR7UGqCZn-49" value="" style="endArrow=none;html=1;rounded=0;exitX=0.5;exitY=0;exitDx=0;exitDy=0;entryX=0;entryY=1;entryDx=0;entryDy=0;" edge="1" parent="1" source="rqLyGmfJN0hLR7UGqCZn-34" target="rqLyGmfJN0hLR7UGqCZn-3">
          <mxGeometry relative="1" as="geometry">
            <mxPoint x="-1645" y="-520" as="sourcePoint" />
            <mxPoint x="-1485" y="-520" as="targetPoint" />
          </mxGeometry>
        </mxCell>
        <mxCell id="rqLyGmfJN0hLR7UGqCZn-50" value="" style="endArrow=none;html=1;rounded=0;entryX=1;entryY=0.5;entryDx=0;entryDy=0;exitX=0;exitY=0;exitDx=0;exitDy=0;" edge="1" parent="1" source="rqLyGmfJN0hLR7UGqCZn-3" target="rqLyGmfJN0hLR7UGqCZn-47">
          <mxGeometry relative="1" as="geometry">
            <mxPoint x="-1635" y="-510" as="sourcePoint" />
            <mxPoint x="-1475" y="-510" as="targetPoint" />
          </mxGeometry>
        </mxCell>
        <mxCell id="rqLyGmfJN0hLR7UGqCZn-51" value="text" style="ellipse;whiteSpace=wrap;html=1;align=center;" vertex="1" parent="1">
          <mxGeometry x="-1330" y="-610" width="90" height="40" as="geometry" />
        </mxCell>
        <mxCell id="rqLyGmfJN0hLR7UGqCZn-52" value="date" style="ellipse;whiteSpace=wrap;html=1;align=center;" vertex="1" parent="1">
          <mxGeometry x="-1330" y="-560" width="90" height="40" as="geometry" />
        </mxCell>
        <mxCell id="rqLyGmfJN0hLR7UGqCZn-53" value="" style="endArrow=none;html=1;rounded=0;entryX=0.5;entryY=1;entryDx=0;entryDy=0;exitX=0.5;exitY=0;exitDx=0;exitDy=0;" edge="1" parent="1" source="rqLyGmfJN0hLR7UGqCZn-2" target="rqLyGmfJN0hLR7UGqCZn-32">
          <mxGeometry relative="1" as="geometry">
            <mxPoint x="-1500" y="-630" as="sourcePoint" />
            <mxPoint x="-1480" y="-690" as="targetPoint" />
          </mxGeometry>
        </mxCell>
        <mxCell id="rqLyGmfJN0hLR7UGqCZn-54" value="" style="endArrow=none;html=1;rounded=0;entryX=0;entryY=0.5;entryDx=0;entryDy=0;exitX=1;exitY=0;exitDx=0;exitDy=0;" edge="1" parent="1" source="rqLyGmfJN0hLR7UGqCZn-2" target="rqLyGmfJN0hLR7UGqCZn-28">
          <mxGeometry relative="1" as="geometry">
            <mxPoint x="-1490" y="-620" as="sourcePoint" />
            <mxPoint x="-1470" y="-680" as="targetPoint" />
          </mxGeometry>
        </mxCell>
        <mxCell id="rqLyGmfJN0hLR7UGqCZn-55" value="" style="endArrow=none;html=1;rounded=0;entryX=0;entryY=0.5;entryDx=0;entryDy=0;exitX=1;exitY=0.5;exitDx=0;exitDy=0;" edge="1" parent="1" source="rqLyGmfJN0hLR7UGqCZn-2" target="rqLyGmfJN0hLR7UGqCZn-51">
          <mxGeometry relative="1" as="geometry">
            <mxPoint x="-1480" y="-610" as="sourcePoint" />
            <mxPoint x="-1460" y="-670" as="targetPoint" />
          </mxGeometry>
        </mxCell>
        <mxCell id="rqLyGmfJN0hLR7UGqCZn-56" value="" style="endArrow=none;html=1;rounded=0;entryX=0;entryY=0.5;entryDx=0;entryDy=0;exitX=1;exitY=1;exitDx=0;exitDy=0;" edge="1" parent="1" source="rqLyGmfJN0hLR7UGqCZn-2" target="rqLyGmfJN0hLR7UGqCZn-52">
          <mxGeometry relative="1" as="geometry">
            <mxPoint x="-1470" y="-600" as="sourcePoint" />
            <mxPoint x="-1450" y="-660" as="targetPoint" />
          </mxGeometry>
        </mxCell>
      </root>
    </mxGraphModel>
  </diagram>
</mxfile>
